<svg width="200" height="201" viewBox="0 0 200 201" fill="none" xmlns="http://www.w3.org/2000/svg"><path d="M126.237.915c-25.535 0-48.079 13.436-61.324 33.803a86 86 0 0 1 8.85-.456c48.541 0 88.033 40.677 88.033 90.675 0 6.747-.725 13.322-2.089 19.652C183.603 132.003 200 106.384 200 76.893 200 35 166.91.915 126.237.915m11.239 40.332c-6.208 0-11.24-5.184-11.24-11.578 0-6.395 5.032-11.578 11.24-11.578 6.207 0 11.24 5.183 11.24 11.578s-5.032 11.577-11.24 11.577m42.595 40.36c-6.208 0-11.24-5.185-11.24-11.578 0-6.394 5.033-11.578 11.24-11.578 6.208 0 11.24 5.183 11.24 11.578s-5.033 11.577-11.24 11.577" fill="url(#a)"/><path d="M73.763 48.96C33.09 48.96 0 83.042 0 124.936s33.09 75.978 73.763 75.978 73.763-34.083 73.763-75.978-33.09-75.978-73.763-75.978M63.646 70.027c6.208 0 11.24 5.184 11.24 11.578 0 6.395-5.032 11.578-11.24 11.578S52.406 88 52.406 81.605s5.032-11.577 11.24-11.577m-36.68 54.397c-6.208 0-11.24-5.184-11.24-11.578 0-6.395 5.033-11.578 11.24-11.578 6.208 0 11.24 5.184 11.24 11.578.001 6.394-5.031 11.578-11.24 11.578M59.86 180.84c-6.208 0-11.24-5.184-11.24-11.578s5.032-11.577 11.24-11.577 11.24 5.183 11.24 11.577-5.032 11.578-11.24 11.578m12.19-48.331c-6.209 0-11.241-5.184-11.241-11.578s5.032-11.578 11.24-11.578 11.24 5.184 11.24 11.578c0 6.395-5.032 11.578-11.24 11.578m50.497 0c-6.208 0-11.24-5.184-11.24-11.578s5.032-11.578 11.24-11.578 11.24 5.184 11.24 11.578-5.033 11.578-11.24 11.578" fill="url(#b)"/><defs><linearGradient id="a" x1="100" y1=".915" x2="100" y2="200.915" gradientUnits="userSpaceOnUse"><stop stop-color="#3DC699"/><stop offset="1" stop-color="#43DBA9"/></linearGradient><linearGradient id="b" x1="100" y1=".915" x2="100" y2="200.915" gradientUnits="userSpaceOnUse"><stop stop-color="#3DC699"/><stop offset="1" stop-color="#43DBA9"/></linearGradient></defs></svg>